<?xml version="1.0" standalone="no"?>
<!DOCTYPE svg PUBLIC "-//W3C//DTD SVG 20010904//EN"
 "http://www.w3.org/TR/2001/REC-SVG-20010904/DTD/svg10.dtd">
<svg version="1.0" xmlns="http://www.w3.org/2000/svg"
 width="274.000000pt" height="274.000000pt" viewBox="0 0 274.000000 274.000000"
 preserveAspectRatio="xMidYMid meet">
<metadata>
Created by potrace 1.15, written by Peter Selinger 2001-2017
</metadata>
<g transform="translate(0.000000,274.000000) scale(0.100000,-0.100000)"
fill="#000000" stroke="none">
<path d="M967 2443 c-3 -5 10 -67 29 -137 l36 -127 -26 -59 c-14 -33 -31 -86
-37 -119 -12 -56 -16 -62 -61 -91 -27 -17 -72 -59 -101 -93 -172 -204 -333
-305 -497 -315 -73 -4 -77 -3 -162 42 -49 26 -100 46 -117 46 l-31 0 0 -132
c0 -73 3 -149 6 -169 l6 -36 43 46 c48 51 28 47 225 41 101 -3 249 70 387 191
34 30 110 108 170 173 76 85 109 115 111 102 2 -10 -23 -45 -66 -90 -85 -90
-131 -152 -218 -292 -90 -147 -166 -254 -181 -254 -7 0 -13 -3 -13 -7 0 -15
59 -225 64 -231 3 -3 9 4 12 14 23 65 131 338 161 407 36 83 154 269 217 342
25 29 36 36 39 25 44 -131 89 -203 182 -288 l69 -63 -88 41 c-48 22 -90 40
-92 40 -10 0 -35 -63 -27 -70 4 -4 46 -25 93 -46 47 -21 89 -41 94 -45 5 -4 4
-22 -3 -40 -6 -18 -9 -34 -7 -36 7 -7 60 18 72 35 18 25 30 6 14 -23 -11 -21
-12 -33 -1 -68 7 -23 12 -49 12 -57 -1 -8 -4 -87 -7 -175 -3 -88 -10 -165 -15
-171 -16 -20 -59 -137 -59 -161 0 -18 6 -23 26 -23 14 0 35 5 47 11 16 9 22 9
25 -1 9 -27 75 -89 105 -99 18 -6 88 -10 157 -8 l125 2 118 -83 c64 -45 123
-85 131 -88 15 -6 627 110 664 126 12 5 22 18 22 28 0 11 27 102 60 203 81
248 80 255 -22 252 -87 -4 -525 -52 -568 -64 -31 -8 -37 -6 -57 19 -27 33 -94
160 -118 224 -17 46 -17 47 5 83 12 20 21 38 19 39 -2 2 -19 13 -38 24 -24 14
-30 23 -20 26 8 2 39 12 69 21 126 40 265 132 341 227 232 292 129 673 -225
843 -141 67 -214 80 -461 81 -121 0 -313 4 -426 9 -132 5 -208 5 -212 -2z
m788 -415 c121 -9 180 -9 270 0 64 7 122 13 128 15 9 1 12 -27 12 -103 l0
-105 -70 -11 c-122 -21 -274 -27 -392 -15 -62 6 -120 14 -128 17 -12 5 -15 26
-15 108 0 105 4 120 27 112 7 -3 83 -11 168 -18z m-349 -273 c65 -39 129 -55
224 -55 78 0 101 15 37 24 -67 10 -83 29 -17 20 70 -9 375 -9 417 0 31 7 29 4
-37 -62 -61 -61 -70 -75 -70 -106 0 -63 67 -110 101 -70 7 8 16 41 20 72 8 59
0 82 -28 82 -10 0 -8 -6 8 -19 13 -11 22 -22 19 -24 -3 -3 -18 5 -33 17 l-28
23 122 62 c85 42 126 58 133 51 6 -6 12 -41 14 -78 3 -56 0 -74 -20 -111 -60
-112 -238 -171 -518 -171 -246 0 -399 59 -451 175 -23 49 -24 133 -4 181 17
41 25 41 111 -11z m1312 -895 c2 -22 -18 -98 -56 -209 -55 -166 -60 -175 -88
-183 -61 -16 -563 -118 -583 -118 -28 0 -27 21 3 191 14 74 28 154 31 179 9
54 29 96 53 109 10 5 119 21 242 35 283 32 295 33 350 32 44 -1 45 -2 48 -36z
m-805 -206 c15 -29 28 -63 29 -77 2 -20 5 -23 15 -15 15 12 28 5 18 -11 -11
-19 -34 -12 -57 19 -25 34 -38 38 -38 11 0 -22 -41 -32 -104 -25 -52 5 -62 16
-42 46 24 36 117 109 135 106 9 -2 28 -26 44 -54z"/>
<path d="M1574 1665 c-59 -25 -69 -114 -17 -155 36 -28 69 -25 104 9 70 70 2
184 -87 146z"/>
</g>
</svg>
